<mxfile host="Electron" agent="Mozilla/5.0 (Macintosh; Intel Mac OS X 10_15_7) AppleWebKit/537.36 (KHTML, like Gecko) draw.io/24.7.8 Chrome/128.0.6613.36 Electron/32.0.1 Safari/537.36" version="24.7.8">
  <diagram name="Pagina-1" id="1lT8yuxHTUthxHgMNPtq">
    <mxGraphModel dx="700" dy="442" grid="1" gridSize="10" guides="1" tooltips="1" connect="1" arrows="1" fold="1" page="1" pageScale="1" pageWidth="827" pageHeight="1169" math="0" shadow="0">
      <root>
        <mxCell id="0" />
        <mxCell id="1" parent="0" />
        <mxCell id="X8oTq-pb9E9ul9ol5JQp-12" value="" style="shape=arrow;endArrow=classic;html=1;rounded=0;strokeColor=none;fillColor=#000000;shadow=1;fontFamily=Fira Mono;textShadow=1;" edge="1" parent="1" source="X8oTq-pb9E9ul9ol5JQp-3" target="X8oTq-pb9E9ul9ol5JQp-7">
          <mxGeometry width="50" height="50" relative="1" as="geometry">
            <mxPoint x="200" y="460" as="sourcePoint" />
            <mxPoint x="70" y="410" as="targetPoint" />
            <Array as="points">
              <mxPoint x="290" y="460" />
            </Array>
          </mxGeometry>
        </mxCell>
        <mxCell id="X8oTq-pb9E9ul9ol5JQp-3" value="" style="ellipse;whiteSpace=wrap;html=1;aspect=fixed;fillColor=#FCBF49;strokeColor=#000000;shadow=1;fontFamily=Fira Mono;textShadow=1;" vertex="1" parent="1">
          <mxGeometry x="160" y="420" width="80" height="80" as="geometry" />
        </mxCell>
        <mxCell id="X8oTq-pb9E9ul9ol5JQp-7" value="" style="rounded=1;whiteSpace=wrap;html=1;fillColor=#EAE2B7;strokeColor=#000000;shadow=1;fontFamily=Fira Mono;textShadow=1;" vertex="1" parent="1">
          <mxGeometry x="320" y="420" width="280" height="80" as="geometry" />
        </mxCell>
        <mxCell id="X8oTq-pb9E9ul9ol5JQp-17" value="Data Emitter &lt;br&gt;or Observable" style="text;html=1;align=center;verticalAlign=middle;whiteSpace=wrap;rounded=0;shadow=1;fontFamily=Fira Mono;textShadow=1;labelBackgroundColor=none;fontColor=#000000;" vertex="1" parent="1">
          <mxGeometry x="160" y="350" width="80" height="60" as="geometry" />
        </mxCell>
        <mxCell id="X8oTq-pb9E9ul9ol5JQp-25" value="" style="rounded=1;whiteSpace=wrap;html=1;fillColor=#1E90FF;shadow=1;strokeColor=#000000;" vertex="1" parent="1">
          <mxGeometry x="360" y="440" width="40" height="40" as="geometry" />
        </mxCell>
        <mxCell id="X8oTq-pb9E9ul9ol5JQp-26" value="" style="rounded=1;whiteSpace=wrap;html=1;fillColor=#D62828;shadow=1;strokeColor=#000000;" vertex="1" parent="1">
          <mxGeometry x="440" y="440" width="40" height="40" as="geometry" />
        </mxCell>
        <mxCell id="X8oTq-pb9E9ul9ol5JQp-27" value="" style="rounded=1;whiteSpace=wrap;html=1;fillColor=#606C38;shadow=1;strokeColor=#000000;" vertex="1" parent="1">
          <mxGeometry x="520" y="440" width="40" height="40" as="geometry" />
        </mxCell>
        <mxCell id="X8oTq-pb9E9ul9ol5JQp-28" value="" style="ellipse;whiteSpace=wrap;html=1;aspect=fixed;fillColor=#00A896;strokeColor=#000000;shadow=1;fontFamily=Fira Mono;textShadow=1;" vertex="1" parent="1">
          <mxGeometry x="680" y="420" width="80" height="80" as="geometry" />
        </mxCell>
        <mxCell id="X8oTq-pb9E9ul9ol5JQp-29" value="" style="shape=arrow;endArrow=classic;html=1;rounded=0;strokeColor=none;fillColor=#000000;shadow=1;" edge="1" parent="1" source="X8oTq-pb9E9ul9ol5JQp-7" target="X8oTq-pb9E9ul9ol5JQp-28">
          <mxGeometry width="50" height="50" relative="1" as="geometry">
            <mxPoint x="400" y="510" as="sourcePoint" />
            <mxPoint x="450" y="460" as="targetPoint" />
          </mxGeometry>
        </mxCell>
        <mxCell id="X8oTq-pb9E9ul9ol5JQp-30" value="" style="shape=arrow;endArrow=classic;startArrow=classic;html=1;rounded=0;fillColor=#000000;strokeColor=none;shadow=1;" edge="1" parent="1">
          <mxGeometry width="100" height="100" relative="1" as="geometry">
            <mxPoint x="460" y="530" as="sourcePoint" />
            <mxPoint x="720" y="530" as="targetPoint" />
          </mxGeometry>
        </mxCell>
        <mxCell id="X8oTq-pb9E9ul9ol5JQp-31" value="" style="shape=arrow;endArrow=classic;startArrow=classic;html=1;rounded=0;fillColor=#000000;strokeColor=none;shadow=1;" edge="1" parent="1">
          <mxGeometry width="100" height="100" relative="1" as="geometry">
            <mxPoint x="460" y="530" as="sourcePoint" />
            <mxPoint x="200" y="530" as="targetPoint" />
          </mxGeometry>
        </mxCell>
        <mxCell id="X8oTq-pb9E9ul9ol5JQp-32" value="Data flowing or pipe" style="text;html=1;align=center;verticalAlign=middle;whiteSpace=wrap;rounded=0;shadow=1;fontFamily=Fira Mono;textShadow=1;fontColor=#000000;" vertex="1" parent="1">
          <mxGeometry x="360" y="390" width="200" height="30" as="geometry" />
        </mxCell>
        <mxCell id="X8oTq-pb9E9ul9ol5JQp-33" value="Data Observer&lt;br&gt;or&lt;br&gt;Observer" style="text;html=1;align=center;verticalAlign=middle;whiteSpace=wrap;rounded=0;shadow=1;fontFamily=Fira Mono;textShadow=1;fontColor=#000000;" vertex="1" parent="1">
          <mxGeometry x="680" y="350" width="80" height="60" as="geometry" />
        </mxCell>
        <mxCell id="X8oTq-pb9E9ul9ol5JQp-34" value="Time Continuity" style="text;html=1;align=center;verticalAlign=middle;whiteSpace=wrap;rounded=0;shadow=1;fontFamily=Fira Mono;textShadow=1;fontColor=#000000;" vertex="1" parent="1">
          <mxGeometry x="360" y="530" width="200" height="30" as="geometry" />
        </mxCell>
        <mxCell id="X8oTq-pb9E9ul9ol5JQp-35" value="Operator" style="text;html=1;align=center;verticalAlign=middle;whiteSpace=wrap;rounded=0;shadow=1;fontFamily=Fira Mono;textShadow=1;fontSize=10;fontColor=#000000;" vertex="1" parent="1">
          <mxGeometry x="360" y="420" width="40" height="20" as="geometry" />
        </mxCell>
        <mxCell id="X8oTq-pb9E9ul9ol5JQp-36" value="Operator" style="text;html=1;align=center;verticalAlign=middle;whiteSpace=wrap;rounded=0;shadow=1;fontFamily=Fira Mono;textShadow=1;fontSize=10;fontColor=#000000;" vertex="1" parent="1">
          <mxGeometry x="440" y="420" width="40" height="20" as="geometry" />
        </mxCell>
        <mxCell id="X8oTq-pb9E9ul9ol5JQp-37" value="Operator" style="text;html=1;align=center;verticalAlign=middle;whiteSpace=wrap;rounded=0;shadow=1;fontFamily=Fira Mono;textShadow=1;fontSize=10;fontColor=#000000;" vertex="1" parent="1">
          <mxGeometry x="520" y="420" width="40" height="20" as="geometry" />
        </mxCell>
      </root>
    </mxGraphModel>
  </diagram>
</mxfile>
